<svg width="400" height="125" viewBox="0 0 400 125" fill="none" xmlns="http://www.w3.org/2000/svg">
<path d="M197.663 63.2902C194.179 62.9503 191.035 62.0155 188.315 60.4009C184.916 58.3614 182.197 55.557 180.327 51.8179C178.458 48.0788 177.438 43.7449 177.438 38.816C177.438 33.8872 178.373 29.5532 180.327 25.8991C182.197 22.16 184.916 19.3556 188.315 17.4011C191.715 15.4466 195.709 14.4268 200.128 14.4268C204.547 14.4268 208.456 15.4466 211.855 17.4011C215.254 19.3556 217.888 22.245 219.758 25.8991C221.373 28.9584 222.222 32.5275 222.562 36.4366H237.774C237.434 30.2331 235.819 24.5394 232.845 19.4406C229.531 13.662 224.942 9.15806 219.163 5.92883C213.469 2.61462 207.096 1 200.128 1C193.244 1 186.871 2.61462 181.092 5.84385C175.313 9.07308 170.725 13.577 167.325 19.3556C163.926 25.1343 162.227 31.5927 162.227 38.731C162.227 45.9543 163.926 52.4978 167.325 58.2764C170.725 64.055 175.313 68.559 181.092 71.7882C186.191 74.6775 191.715 76.2071 197.748 76.5471V63.2902H197.663Z" fill="#1A1A1A"></path>
<path d="M222.477 41.6204C222.137 45.3595 221.287 48.7587 219.758 51.733C217.888 55.4721 215.169 58.3614 211.855 60.3159C209.22 61.8456 206.246 62.8653 203.017 63.2053V76.4621C208.795 76.0372 214.234 74.5076 219.163 71.7032C224.942 68.474 229.531 63.9701 232.845 58.1915C235.734 53.1776 237.349 47.6539 237.774 41.5354H222.477V41.6204Z" fill="#1A1A1A"></path>
<mask id="mask0_1_77425" style="mask-type:alpha" maskUnits="userSpaceOnUse" x="161" y="0" width="78" height="78">
<path d="M197.663 63.2477C194.179 62.9078 191.035 61.973 188.315 60.3584C184.916 58.3188 182.197 55.5145 180.327 51.7754C178.458 48.0363 177.438 43.7023 177.438 38.7735C177.438 33.8446 178.373 29.5107 180.327 25.8565C182.197 22.1174 184.916 19.3131 188.315 17.3586C191.715 15.404 195.709 14.3843 200.128 14.3843C204.547 14.3843 208.456 15.404 211.855 17.3586C215.254 19.3131 217.888 22.2024 219.758 25.8565C221.373 28.9158 222.222 32.485 222.562 36.394H237.774C237.434 30.1905 235.819 24.4969 232.845 19.3981C229.531 13.6195 224.942 9.11552 219.163 5.88629C213.469 2.57208 207.096 0.957458 200.128 0.957458C193.244 0.957458 186.871 2.57208 181.092 5.80131C175.313 9.03054 170.725 13.5345 167.325 19.3131C163.926 25.0917 162.227 31.5502 162.227 38.6885C162.227 45.9118 163.926 52.4552 167.325 58.2339C170.725 64.0125 175.313 68.5164 181.092 71.7457C186.191 74.635 191.715 76.1646 197.748 76.5045V63.2477H197.663Z" fill="#1A1A1A"></path>
<path d="M222.477 41.5778C222.137 45.3169 221.287 48.7161 219.758 51.6904C217.888 55.4295 215.169 58.3188 211.855 60.2734C209.22 61.803 206.246 62.8228 203.017 63.1627V76.4196C208.795 75.9947 214.234 74.465 219.163 71.6607C224.942 68.4314 229.531 63.9275 232.845 58.1489C235.734 53.1351 237.349 47.6114 237.774 41.4928H222.477V41.5778Z" fill="#1A1A1A"></path>
<path d="M197.663 63.2477C194.179 62.9078 191.035 61.973 188.315 60.3584C184.916 58.3188 182.197 55.5145 180.327 51.7754C178.458 48.0363 177.438 43.7023 177.438 38.7735C177.438 33.8446 178.373 29.5107 180.327 25.8565C182.197 22.1174 184.916 19.3131 188.315 17.3586C191.715 15.404 195.709 14.3843 200.128 14.3843C204.547 14.3843 208.456 15.404 211.855 17.3586C215.254 19.3131 217.888 22.2024 219.758 25.8565C221.373 28.9158 222.222 32.485 222.562 36.394H237.774C237.434 30.1905 235.819 24.4969 232.845 19.3981C229.531 13.6195 224.942 9.11552 219.163 5.88629C213.469 2.57208 207.096 0.957458 200.128 0.957458C193.244 0.957458 186.871 2.57208 181.092 5.80131C175.313 9.03054 170.725 13.5345 167.325 19.3131C163.926 25.0917 162.227 31.5502 162.227 38.6885C162.227 45.9118 163.926 52.4552 167.325 58.2339C170.725 64.0125 175.313 68.5164 181.092 71.7457C186.191 74.635 191.715 76.1646 197.748 76.5045V63.2477H197.663Z" stroke="black"></path>
<path d="M222.477 41.5778C222.137 45.3169 221.287 48.7161 219.758 51.6904C217.888 55.4295 215.169 58.3188 211.855 60.2734C209.22 61.803 206.246 62.8228 203.017 63.1627V76.4196C208.795 75.9947 214.234 74.465 219.163 71.6607C224.942 68.4314 229.531 63.9275 232.845 58.1489C235.734 53.1351 237.349 47.6114 237.774 41.4928H222.477V41.5778Z" stroke="black"></path>
</mask>
<g mask="url(#mask0_1_77425)">
<rect x="151" y="76" width="92" height="82" fill="#EF4DA2" id="ani01">
</rect></g>
<g clip-path="url(#clip0_1_77425)" id="ani03">
<rect y="116.505" width="400" height="8" rx="4" fill="#E9E9E9"></rect>
<rect y="116.505" width="0" height="8" rx="4" fill="#1A1A1A" id="ani02">
</rect></g>
<defs>
<clipPath id="clip0_1_77425">
<rect y="116.505" width="400" height="8" rx="4" fill="white">
</rect></clipPath>
</defs>
</svg>