<svg width="3294" height="141" viewBox="0 0 3294 141" fill="none" xmlns="http://www.w3.org/2000/svg">
<path fill-rule="evenodd" clip-rule="evenodd" d="M3235.99 104.199C3242.06 107.186 3249.1 108.679 3257.13 108.679C3263.38 108.679 3268.94 107.699 3273.79 105.739C3278.64 103.779 3282.8 100.839 3286.25 96.9194L3272.53 83.3394C3272.08 83.8504 3271.62 84.3323 3271.15 84.785C3269.46 86.3999 3267.64 87.6447 3265.67 88.5195C3263.24 89.5461 3260.4 90.0594 3257.13 90.0594C3253.77 90.0594 3250.97 89.4061 3248.73 88.0995C3246.73 86.9301 3245.13 85.2748 3243.95 83.1337C3243.81 82.8823 3243.68 82.6242 3243.55 82.3595C3243.38 81.9665 3243.23 81.5599 3243.08 81.1395L3290.45 80.8194C3290.92 78.7661 3291.2 76.9928 3291.29 75.4995C3291.48 73.9128 3291.57 72.4194 3291.57 71.0195C3291.57 64.2995 3289.98 58.3261 3286.81 53.0994C3283.73 47.8728 3279.44 43.8128 3273.93 40.9194C3268.42 37.9328 3262.08 36.4395 3254.89 36.4395C3247.61 36.4395 3241.08 38.0261 3235.29 41.1994C3229.5 44.2794 3224.93 48.5261 3221.57 53.9395C3218.3 59.3528 3216.67 65.5594 3216.67 72.5594C3216.67 79.6528 3218.35 85.9528 3221.71 91.4594C3225.16 96.8728 3229.92 101.119 3235.99 104.199ZM3234.34 39.4398C3228.26 42.6801 3223.42 47.1661 3219.87 52.8847L3219.86 52.8954L3219.86 52.9061C3216.38 58.664 3214.67 65.2354 3214.67 72.5594C3214.67 79.9825 3216.43 86.65 3220 92.5012L3220.01 92.5182L3220.02 92.5351C3223.68 98.268 3228.72 102.751 3235.09 105.983L3235.1 105.988L3235.11 105.994C3241.5 109.139 3248.85 110.679 3257.13 110.679C3263.59 110.679 3269.41 109.667 3274.54 107.594C3279.68 105.518 3284.09 102.396 3287.75 98.2415L3289 96.8255L3274.95 82.9242L3292.05 82.8087L3292.4 81.2627C3292.88 79.1674 3293.18 77.3012 3293.28 75.6803C3293.47 74.046 3293.57 72.4917 3293.57 71.0195C3293.57 63.9738 3291.9 57.637 3288.52 52.0686C3285.26 46.5257 3280.69 42.2163 3274.88 39.1579C3269.04 35.9928 3262.36 34.4395 3254.89 34.4395C3247.31 34.4395 3240.45 36.0926 3234.34 39.4398ZM3270.15 82.9566L3246.28 83.1179C3247.22 84.4983 3248.37 85.5724 3249.74 86.3719C3251.6 87.4548 3254.02 88.0594 3257.13 88.0594C3260.18 88.0594 3262.75 87.5805 3264.88 86.6842C3266.76 85.8462 3268.52 84.6142 3270.15 82.9566ZM3243.81 62.3139C3243.67 62.5946 3243.54 62.8831 3243.41 63.1794C3243.27 63.5486 3243.13 63.929 3243.01 64.3205L3266.68 64.129C3266.51 63.4927 3266.31 62.8961 3266.09 62.3394C3266.07 62.2706 3266.04 62.2022 3266.02 62.1343C3265.18 59.81 3263.89 58.0583 3262.17 56.8794C3260.4 55.6661 3258.16 55.0594 3255.45 55.0594C3252.65 55.0594 3250.22 55.7594 3248.17 57.1594C3246.35 58.4007 3244.9 60.1189 3243.81 62.3139ZM3263.88 62.1516C3263.17 60.5003 3262.21 59.3275 3261.04 58.5301C3259.68 57.5971 3257.86 57.0594 3255.45 57.0594C3253 57.0594 3250.98 57.6664 3249.3 58.8119C3248.04 59.6687 3246.97 60.8161 3246.09 62.2954L3263.88 62.1516Z" fill="white"></path>
<path fill-rule="evenodd" clip-rule="evenodd" d="M3161.62 104.059C3167.59 107.139 3174.31 108.679 3181.78 108.679C3187.57 108.679 3192.65 107.793 3197.04 106.019C3200.89 104.383 3204.59 102.028 3208.15 98.9565C3208.65 98.5255 3209.15 98.0803 3209.64 97.6211C3209.64 97.6205 3209.64 97.62 3209.64 97.6194L3209.64 97.6177L3192.42 80.3994C3192.18 80.6611 3191.93 80.9115 3191.67 81.1508C3190.64 82.1061 3189.49 82.8823 3188.22 83.4794C3186.63 84.2261 3184.63 84.5994 3182.2 84.5994C3180.05 84.5994 3178.05 84.0861 3176.18 83.0594C3174.31 82.0328 3172.82 80.6328 3171.7 78.8595C3170.58 76.9928 3170.02 74.8461 3170.02 72.4194C3170.02 69.9928 3170.58 67.8928 3171.7 66.1194C3172.82 64.3461 3174.27 62.9928 3176.04 62.0594C3177.91 61.0328 3179.96 60.5194 3182.2 60.5194C3184.35 60.5194 3186.17 60.7994 3187.66 61.3595C3189.15 61.9194 3190.51 62.7594 3191.72 63.8794L3191.72 63.8778L3208.94 46.6611L3208.94 46.6594C3208.94 46.6589 3208.94 46.6584 3208.94 46.6579C3208.45 46.2007 3207.95 45.759 3207.44 45.3329C3204.13 42.5412 3200.57 40.4167 3196.76 38.9594C3192.47 37.2794 3187.61 36.4395 3182.2 36.4395C3174.64 36.4395 3167.83 38.0261 3161.76 41.1994C3155.79 44.2794 3151.03 48.5728 3147.48 54.0794C3144.03 59.4928 3142.3 65.6994 3142.3 72.6994C3142.3 79.6061 3144.03 85.8128 3147.48 91.3194C3150.93 96.7328 3155.65 100.979 3161.62 104.059ZM3160.83 39.4273C3167.22 36.0892 3174.35 34.4395 3182.2 34.4395C3187.82 34.4395 3192.92 35.3105 3197.48 37.093C3202.12 38.8714 3206.4 41.5802 3210.3 45.1912L3211.83 46.6033L3191.78 66.6524L3190.36 65.3491C3189.33 64.3981 3188.2 63.6981 3186.96 63.2321C3185.75 62.7799 3184.19 62.5194 3182.2 62.5194C3180.28 62.5194 3178.56 62.9561 3177.01 63.8119L3176.99 63.8207L3176.97 63.8293C3175.52 64.5916 3174.33 65.6962 3173.39 67.1874C3172.5 68.5935 3172.02 70.3103 3172.02 72.4194C3172.02 74.5163 3172.5 76.2923 3173.4 77.8086C3174.34 79.2832 3175.58 80.444 3177.15 81.307C3178.71 82.17 3180.39 82.5994 3182.2 82.5994C3184.44 82.5994 3186.13 82.2526 3187.37 81.6698C3188.72 81.0339 3189.91 80.161 3190.96 79.0385L3192.37 77.5177L3212.52 97.6715L3211 99.0838C3206.85 102.952 3202.45 105.89 3197.82 107.86L3197.81 107.867L3197.79 107.874C3193.12 109.762 3187.77 110.679 3181.78 110.679C3174.03 110.679 3166.99 109.079 3160.7 105.837C3154.43 102.603 3149.45 98.1204 3145.8 92.3951L3145.79 92.3886L3145.79 92.382C3142.12 86.5367 3140.3 79.9574 3140.3 72.6994C3140.3 65.354 3142.12 58.7673 3145.8 53.0038L3145.8 52.9965C3149.54 47.1905 3154.56 42.6631 3160.83 39.4273Z" fill="white"></path>
<path fill-rule="evenodd" clip-rule="evenodd" d="M3098.85 109V36.1201H3130.29V109H3098.85ZM3103.05 29.01L3103.03 28.9848C3100.05 25.7953 3098.57 21.8933 3098.57 17.4001C3098.57 12.9066 3100.05 9.03699 3103.05 5.93093L3104.49 7.32012C3101.88 10.0268 3100.57 13.3868 3100.57 17.4001C3100.57 21.4135 3101.88 24.8201 3104.49 27.6201C3107.2 30.3268 3110.56 31.6801 3114.57 31.6801C3118.68 31.6801 3122.04 30.3268 3124.65 27.6201C3127.26 24.8201 3128.57 21.4135 3128.57 17.4001C3128.57 13.3868 3127.26 10.0268 3124.65 7.32012C3122.04 4.52012 3118.68 3.12012 3114.57 3.12012C3110.56 3.12012 3107.2 4.52012 3104.49 7.32012L3103.05 5.93008C3106.15 2.72706 3110.03 1.12012 3114.57 1.12012C3119.18 1.12012 3123.08 2.71603 3126.1 5.94772C3129.09 9.05093 3130.57 12.9147 3130.57 17.4001C3130.57 21.8933 3129.09 25.7953 3126.11 28.9848L3126.1 28.9971L3126.09 29.0093C3123.06 32.1442 3119.16 33.6801 3114.57 33.6801C3110.05 33.6801 3106.18 32.1358 3103.08 29.0343L3103.05 29.01ZM3100.85 107H3128.29V38.1201H3100.85V107Z" fill="white"></path>
<path fill-rule="evenodd" clip-rule="evenodd" d="M3027.5 104.059C3033.48 107.139 3040.24 108.679 3047.8 108.679C3055.36 108.679 3062.08 107.139 3067.96 104.059C3073.84 100.886 3078.46 96.5461 3081.82 91.0394C3085.18 85.5328 3086.86 79.3261 3086.86 72.4194C3086.86 65.5128 3085.14 59.3528 3081.68 53.9395C3078.32 48.5261 3073.7 44.2794 3067.82 41.1994C3061.94 38.0261 3055.22 36.4395 3047.66 36.4395C3040.1 36.4395 3033.34 38.0261 3027.36 41.1994C3021.48 44.2794 3016.86 48.5261 3013.5 53.9395C3010.14 59.3528 3008.46 65.5128 3008.46 72.4194C3008.46 79.3261 3010.14 85.5328 3013.5 91.0394C3016.96 96.5461 3021.62 100.886 3027.5 104.059ZM3026.43 39.4287C3032.73 36.0874 3039.82 34.4395 3047.66 34.4395C3055.51 34.4395 3062.55 36.0862 3068.76 39.4312C3074.94 42.6679 3079.82 47.1522 3083.38 52.8758C3087.05 58.632 3088.86 65.1667 3088.86 72.4194C3088.86 79.6666 3087.1 86.2385 3083.53 92.0812C3079.98 97.9012 3075.09 102.484 3068.91 105.819L3068.9 105.825L3068.89 105.831C3062.69 109.081 3055.64 110.679 3047.8 110.679C3039.97 110.679 3032.88 109.081 3026.59 105.837L3026.57 105.828L3026.55 105.819C3020.38 102.487 3015.45 97.9101 3011.81 92.102L3011.8 92.0916L3011.8 92.0812C3008.23 86.2385 3006.46 79.6666 3006.46 72.4194C3006.46 65.1726 3008.23 58.6413 3011.81 52.8847C3015.36 47.1553 3020.25 42.6671 3026.43 39.4287ZM3053.68 83.1994C3052 84.1328 3050 84.5994 3047.66 84.5994C3045.42 84.5994 3043.42 84.1328 3041.64 83.1994C3039.96 82.1728 3038.61 80.7728 3037.58 78.9995C3036.65 77.1328 3036.18 75.0328 3036.18 72.6994C3036.18 70.2728 3036.65 68.1728 3037.58 66.3994C3038.61 64.5328 3039.96 63.0861 3041.64 62.0594C3043.42 61.0328 3045.42 60.5194 3047.66 60.5194C3050 60.5194 3052 61.0328 3053.68 62.0594C3055.36 62.9928 3056.67 64.3928 3057.6 66.2594C3058.63 68.0328 3059.14 70.1328 3059.14 72.5594C3059.14 74.9861 3058.68 77.1328 3057.74 78.9995C3056.81 80.7728 3055.46 82.1728 3053.68 83.1994ZM3052.7 81.4595C3051.38 82.1906 3049.72 82.5994 3047.66 82.5994C3045.74 82.5994 3044.07 82.205 3042.63 81.459C3041.29 80.6268 3040.2 79.5024 3039.35 78.0515C3038.59 76.5065 3038.18 74.7358 3038.18 72.6994C3038.18 70.5388 3038.6 68.7775 3039.34 67.3492C3040.21 65.7772 3041.32 64.6061 3042.67 63.7789C3044.1 62.9522 3045.75 62.5194 3047.66 62.5194C3049.7 62.5194 3051.33 62.9642 3052.64 63.766L3052.68 63.7876L3052.71 63.8078C3054.01 64.5284 3055.05 65.6152 3055.82 67.1539L3055.84 67.2086L3055.87 67.2615C3056.69 68.6785 3057.14 70.4195 3057.14 72.5594C3057.14 74.7178 3056.73 76.5439 3055.96 78.0872C3055.21 79.5049 3054.14 80.6219 3052.7 81.4595Z" fill="white"></path>
<path fill-rule="evenodd" clip-rule="evenodd" d="M2966.32 109V68.3595C2966.32 66.0554 2965.66 64.6193 2964.61 63.6992L2964.57 63.6579L2964.52 63.6138C2963.45 62.5365 2962.06 61.9595 2960.2 61.9595C2958.9 61.9595 2957.78 62.2209 2956.78 62.715C2955.94 63.1715 2955.24 63.8597 2954.67 64.8502C2954.21 65.6981 2953.94 66.8384 2953.94 68.3595V109H2922.5V2.51953H2953.94V37.8203C2958.21 35.7351 2963.07 34.7195 2968.46 34.7195C2974.32 34.7195 2979.51 35.8912 2983.95 38.3128C2988.37 40.6236 2991.78 43.8668 2994.13 48.0355C2996.57 52.1144 2997.76 56.8115 2997.76 62.0595V109H2966.32ZM2953.94 40.0696C2953.24 40.4494 2952.58 40.8574 2951.94 41.2936V4.51953H2924.5V107H2951.94V68.3595C2951.94 67.605 2952 66.9011 2952.11 66.2479C2952.27 65.3661 2952.54 64.5766 2952.92 63.8795C2953.22 63.3512 2953.56 62.8763 2953.94 62.4548C2954.49 61.8338 2955.13 61.3287 2955.86 60.9395C2957.16 60.2862 2958.61 59.9595 2960.2 59.9595C2962.53 59.9595 2964.44 60.7062 2965.94 62.1995C2967.52 63.5995 2968.32 65.6529 2968.32 68.3595V107H2995.76V62.0595C2995.76 57.1129 2994.64 52.7729 2992.4 49.0395C2990.25 45.2129 2987.12 42.2262 2983.02 40.0795C2978.91 37.8395 2974.06 36.7195 2968.46 36.7195C2963.04 36.7195 2958.28 37.7929 2954.18 39.9395C2954.1 39.9825 2954.02 40.0258 2953.94 40.0696Z" fill="white"></path>
<path fill-rule="evenodd" clip-rule="evenodd" d="M2851.09 104.9C2857.72 107.42 2864.86 108.68 2872.51 108.68C2880.82 108.68 2888.05 107.513 2894.21 105.18C2899.74 103.001 2904.78 100.071 2909.33 96.3892C2909.85 95.9692 2910.37 95.5393 2910.87 95.0997L2892.11 76.3397C2892.11 76.3408 2892.11 76.3419 2892.11 76.343C2891.9 76.5601 2891.69 76.7727 2891.47 76.9807C2889.18 79.1865 2886.5 80.8861 2883.43 82.0797C2880.17 83.3863 2876.43 84.0396 2872.23 84.0396C2868.5 84.0396 2865.05 83.433 2861.87 82.2197C2858.79 80.913 2856.13 79.093 2853.89 76.7597C2851.65 74.4263 2849.88 71.6263 2848.57 68.3597C2847.36 64.9997 2846.75 61.2197 2846.75 57.0197C2846.75 52.913 2847.36 49.2263 2848.57 45.9597C2849.88 42.5997 2851.65 39.753 2853.89 37.4197C2856.13 35.0863 2858.79 33.313 2861.87 32.0997C2865.05 30.8863 2868.5 30.2796 2872.23 30.2796C2876.53 30.2796 2880.26 30.9797 2883.43 32.3796C2886.05 33.5014 2888.34 34.9528 2890.3 36.7337C2890.78 37.1754 2891.25 37.6374 2891.69 38.1197L2910.31 19.3596C2909.82 18.9122 2909.31 18.4748 2908.8 18.0476C2904.38 14.376 2899.28 11.4534 2893.51 9.27966C2887.07 6.85299 2879.98 5.63965 2872.23 5.63965C2864.58 5.63965 2857.49 6.94632 2850.95 9.55965C2844.42 12.0797 2838.68 15.6263 2833.73 20.1997C2828.88 24.773 2825.05 30.1863 2822.25 36.4397C2819.55 42.693 2818.19 49.553 2818.19 57.0197C2818.19 64.393 2819.55 71.253 2822.25 77.5997C2825.05 83.853 2828.93 89.313 2833.87 93.9797C2838.82 98.6463 2844.56 102.286 2851.09 104.9ZM2862.6 33.9638C2865.52 32.8485 2868.72 32.2796 2872.23 32.2796C2876.31 32.2796 2879.76 32.945 2882.63 34.2095L2882.64 34.2138L2882.64 34.2179C2885.67 35.5157 2888.19 37.2717 2890.22 39.4762L2891.64 41.0115L2913.21 19.2796L2911.65 17.8745C2906.69 13.4019 2900.87 9.91631 2894.22 7.40811C2887.53 4.88652 2880.19 3.63965 2872.23 3.63965C2864.35 3.63965 2857.01 4.98501 2850.22 7.69713C2843.47 10.3042 2837.51 13.9815 2832.38 18.7311L2832.37 18.7376L2832.36 18.7441C2827.31 23.5032 2823.33 29.1352 2820.43 35.6223L2820.42 35.6337L2820.42 35.6452C2817.59 42.1725 2816.19 49.3061 2816.19 57.0197C2816.19 64.6439 2817.59 71.7728 2820.41 78.3842L2820.42 78.4007L2820.43 78.417C2823.33 84.9087 2827.36 90.5858 2832.5 95.4344C2837.64 100.28 2843.59 104.053 2850.35 106.757L2850.37 106.763L2850.38 106.769C2857.25 109.382 2864.64 110.68 2872.51 110.68C2881 110.68 2888.48 109.488 2894.92 107.05L2894.93 107.045L2894.95 107.04C2901.31 104.532 2907.06 101.054 2912.18 96.6101L2913.8 95.2032L2892.09 73.4843L2890.67 74.9524C2888.45 77.257 2885.81 79.0108 2882.71 80.2156L2882.7 80.2191L2882.69 80.2227C2879.7 81.4185 2876.23 82.0396 2872.23 82.0396C2868.73 82.0396 2865.54 81.4739 2862.62 80.3647C2859.8 79.1611 2857.37 77.4978 2855.34 75.3746C2853.3 73.2499 2851.66 70.6839 2850.44 67.6488C2849.33 64.5488 2848.75 61.0143 2848.75 57.0197C2848.75 53.1177 2849.33 49.6788 2850.44 46.6754C2851.66 43.537 2853.3 40.9252 2855.34 38.8047C2857.37 36.6864 2859.78 35.074 2862.6 33.9638Z" fill="white"></path>
<path fill-rule="evenodd" clip-rule="evenodd" d="M2720.53 38.1197V107H2747.97V69.7597C2747.97 68.8566 2748.03 68.0176 2748.15 67.2428C2748.43 65.4392 2749.04 63.9836 2749.97 62.8758C2750 62.8367 2750.03 62.798 2750.07 62.7597C2751.47 61.0797 2753.57 60.2397 2756.37 60.2397C2758.05 60.2397 2759.5 60.5197 2760.71 61.0797C2761.21 61.2581 2761.66 61.457 2762.06 61.6763C2762.72 62.0307 2763.24 62.4385 2763.65 62.8997L2779.05 41.0597C2777.65 39.6597 2775.78 38.5864 2773.45 37.8397C2771.21 37.0931 2768.5 36.7197 2765.33 36.7197C2759.39 36.7197 2754.27 37.9622 2749.97 40.4472C2749.28 40.8443 2748.61 41.2731 2747.97 41.7336V38.1197H2720.53ZM2749.97 38.1652V36.1197H2718.53V109H2749.97V69.7597C2749.97 66.9491 2750.61 65.1685 2751.57 64.083L2751.59 64.0618L2751.6 64.0401C2752.52 62.9381 2753.98 62.2397 2756.37 62.2397C2757.83 62.2397 2758.98 62.4839 2759.87 62.8957L2759.95 62.9331L2760.04 62.9632C2761.14 63.3585 2761.79 63.8089 2762.14 64.2167L2763.82 66.1303L2781.65 40.8362L2780.46 39.6455C2778.79 37.9756 2776.63 36.76 2774.07 35.9389C2771.57 35.1078 2768.64 34.7197 2765.33 34.7197C2759.54 34.7197 2754.4 35.8492 2749.97 38.1652Z" fill="white"></path>
<path fill-rule="evenodd" clip-rule="evenodd" d="M2651.29 104.76C2656.52 107.373 2662.49 108.68 2669.21 108.68C2675.93 108.68 2681.86 107.373 2686.99 104.76C2692.22 102.147 2696.28 98.5535 2699.17 93.9801C2702.16 89.3135 2703.65 83.9468 2703.65 77.8801V38.1201H2676.21V78.1601C2676.21 80.3068 2675.51 82.0801 2674.11 83.4801C2672.81 84.7868 2671.17 85.4401 2669.21 85.4401C2667.81 85.4401 2666.55 85.1601 2665.43 84.6001C2664.41 83.9468 2663.57 83.0601 2662.91 81.9401C2662.35 80.8201 2662.07 79.5601 2662.07 78.1601V38.1201H2634.63V77.8801C2634.63 83.8535 2636.13 89.1735 2639.11 93.8401C2642.1 98.5068 2646.16 102.147 2651.29 104.76ZM2664.67 80.9885C2664.28 80.1902 2664.07 79.2603 2664.07 78.1601V36.1201H2632.63V77.8801C2632.63 84.2045 2634.22 89.9044 2637.43 94.9182C2640.61 99.8968 2644.95 103.774 2650.38 106.542L2650.39 106.546L2650.4 106.549C2655.94 109.321 2662.23 110.68 2669.21 110.68C2676.19 110.68 2682.44 109.322 2687.89 106.546C2693.41 103.784 2697.76 99.9556 2700.86 95.0535C2704.07 90.0358 2705.65 84.2892 2705.65 77.8801V36.1201H2674.21V78.1601C2674.21 79.8256 2673.69 81.0744 2672.7 82.0659C2671.79 82.973 2670.68 83.4401 2669.21 83.4401C2668.13 83.4401 2667.21 83.2334 2666.42 82.8568C2665.73 82.4015 2665.15 81.7902 2664.67 80.9885Z" fill="white"></path>
<path fill-rule="evenodd" clip-rule="evenodd" d="M2562.97 104.059C2568.94 107.139 2575.71 108.679 2583.27 108.679C2590.83 108.679 2597.55 107.139 2603.43 104.059C2609.31 100.886 2613.93 96.5461 2617.29 91.0394C2620.65 85.5328 2622.33 79.3261 2622.33 72.4194C2622.33 65.5128 2620.6 59.3528 2617.15 53.9395C2613.79 48.5261 2609.17 44.2794 2603.29 41.1994C2597.41 38.0261 2590.69 36.4395 2583.13 36.4395C2575.57 36.4395 2568.8 38.0261 2562.83 41.1994C2556.95 44.2794 2552.33 48.5261 2548.97 53.9395C2545.61 59.3528 2543.93 65.5128 2543.93 72.4194C2543.93 79.3261 2545.61 85.5328 2548.97 91.0394C2552.42 96.5461 2557.09 100.886 2562.97 104.059ZM2561.9 39.4287C2568.19 36.0874 2575.28 34.4395 2583.13 34.4395C2590.97 34.4395 2598.02 36.0862 2604.22 39.4312C2610.4 42.6679 2615.29 47.1522 2618.84 52.8758C2622.51 58.632 2624.33 65.1667 2624.33 72.4194C2624.33 79.6666 2622.56 86.2385 2618.99 92.0812C2615.44 97.9012 2610.56 102.484 2604.38 105.819L2604.37 105.825L2604.36 105.831C2598.15 109.081 2591.11 110.679 2583.27 110.679C2575.43 110.679 2568.34 109.081 2562.05 105.837L2562.03 105.828L2562.02 105.819C2555.84 102.487 2550.92 97.9101 2547.27 92.102L2547.27 92.0916L2547.26 92.0812C2543.7 86.2385 2541.93 79.6666 2541.93 72.4194C2541.93 65.1726 2543.7 58.6413 2547.27 52.8847C2550.82 47.1553 2555.72 42.6671 2561.9 39.4287ZM2589.15 83.1994C2587.47 84.1328 2585.46 84.5994 2583.13 84.5994C2580.89 84.5994 2578.88 84.1328 2577.11 83.1994C2575.43 82.1728 2574.07 80.7728 2573.05 78.9995C2572.11 77.1328 2571.65 75.0328 2571.65 72.6994C2571.65 70.2728 2572.11 68.1728 2573.05 66.3994C2574.07 64.5328 2575.43 63.0861 2577.11 62.0594C2578.88 61.0328 2580.89 60.5194 2583.13 60.5194C2585.46 60.5194 2587.47 61.0328 2589.15 62.0594C2590.83 62.9928 2592.13 64.3928 2593.07 66.2594C2594.09 68.0328 2594.61 70.1328 2594.61 72.5594C2594.61 74.9861 2594.14 77.1328 2593.21 78.9995C2592.27 80.7728 2590.92 82.1728 2589.15 83.1994ZM2588.16 81.4595C2586.84 82.1906 2585.19 82.5994 2583.13 82.5994C2581.2 82.5994 2579.54 82.205 2578.09 81.459C2576.75 80.6268 2575.66 79.5024 2574.81 78.0515C2574.05 76.5065 2573.65 74.7358 2573.65 72.6994C2573.65 70.5388 2574.06 68.7775 2574.81 67.3492C2575.68 65.7772 2576.78 64.6061 2578.13 63.7789C2579.57 62.9522 2581.21 62.5194 2583.13 62.5194C2585.16 62.5194 2586.79 62.9642 2588.1 63.766L2588.14 63.7876L2588.18 63.8078C2589.47 64.5284 2590.51 65.6152 2591.28 67.1539L2591.31 67.2086L2591.34 67.2615C2592.16 68.6785 2592.61 70.4195 2592.61 72.5594C2592.61 74.7178 2592.2 76.5439 2591.43 78.0872C2590.68 79.5049 2589.6 80.6219 2588.16 81.4595Z" fill="white"></path>
<path fill-rule="evenodd" clip-rule="evenodd" d="M2492.9 67.1515L2458.18 7.32031H2490.38L2507.04 38.2835L2523.7 7.32031H2555.2L2520.9 65.9948V107H2492.9V67.1515ZM2522.9 66.5364V109H2490.9V67.6896L2454.7 5.32031H2491.57L2507.04 34.0626L2522.5 5.32031H2558.68L2522.9 66.5364Z" fill="white"></path>
<path fill-rule="evenodd" clip-rule="evenodd" d="M2367.14 38.1197V107H2394.58V69.7597C2394.58 68.8566 2394.64 68.0176 2394.76 67.2428C2395.04 65.4392 2395.65 63.9836 2396.58 62.8758C2396.61 62.8367 2396.64 62.798 2396.68 62.7597C2398.08 61.0797 2400.18 60.2397 2402.98 60.2397C2404.66 60.2397 2406.1 60.5197 2407.32 61.0797C2407.82 61.2581 2408.27 61.457 2408.67 61.6763C2409.33 62.0307 2409.85 62.4385 2410.26 62.8997L2425.66 41.0597C2424.26 39.6597 2422.39 38.5864 2420.06 37.8397C2417.82 37.0931 2415.11 36.7197 2411.94 36.7197C2406 36.7197 2400.88 37.9622 2396.58 40.4472C2395.89 40.8443 2395.22 41.2731 2394.58 41.7336V38.1197H2367.14ZM2396.58 38.1652V36.1197H2365.14V109H2396.58V69.7597C2396.58 66.9491 2397.22 65.1685 2398.18 64.083L2398.2 64.0618L2398.21 64.0401C2399.13 62.9381 2400.59 62.2397 2402.98 62.2397C2404.44 62.2397 2405.59 62.4839 2406.48 62.8957L2406.56 62.9331L2406.65 62.9632C2407.75 63.3585 2408.4 63.8089 2408.75 64.2167L2410.43 66.1303L2428.26 40.8362L2427.07 39.6455C2425.4 37.9756 2423.24 36.76 2420.68 35.9389C2418.18 35.1078 2415.25 34.7197 2411.94 34.7197C2406.15 34.7197 2401.01 35.8492 2396.58 38.1652Z" fill="white"></path>
<path fill-rule="evenodd" clip-rule="evenodd" d="M2293.65 104.059C2299.63 107.139 2306.39 108.679 2313.95 108.679C2321.51 108.679 2328.23 107.139 2334.11 104.059C2339.99 100.886 2344.61 96.5461 2347.97 91.0394C2351.33 85.5328 2353.01 79.3261 2353.01 72.4194C2353.01 65.5128 2351.29 59.3528 2347.83 53.9395C2344.47 48.5261 2339.85 44.2794 2333.97 41.1994C2328.09 38.0261 2321.37 36.4395 2313.81 36.4395C2306.25 36.4395 2299.49 38.0261 2293.51 41.1994C2287.63 44.2794 2283.01 48.5261 2279.65 53.9395C2276.29 59.3528 2274.61 65.5128 2274.61 72.4194C2274.61 79.3261 2276.29 85.5328 2279.65 91.0394C2283.11 96.5461 2287.77 100.886 2293.65 104.059ZM2292.58 39.4287C2298.88 36.0874 2305.97 34.4395 2313.81 34.4395C2321.65 34.4395 2328.7 36.0862 2334.91 39.4312C2341.08 42.6679 2345.97 47.1522 2349.53 52.8758C2353.2 58.632 2355.01 65.1667 2355.01 72.4194C2355.01 79.6666 2353.25 86.2385 2349.68 92.0812C2346.13 97.9012 2341.24 102.484 2335.06 105.819L2335.05 105.825L2335.04 105.831C2328.84 109.081 2321.79 110.679 2313.95 110.679C2306.11 110.679 2299.03 109.081 2292.74 105.837L2292.72 105.828L2292.7 105.819C2286.53 102.487 2281.6 97.9101 2277.96 92.102L2277.95 92.0916L2277.95 92.0812C2274.38 86.2385 2272.61 79.6666 2272.61 72.4194C2272.61 65.1726 2274.38 58.6413 2277.95 52.8847C2281.51 47.1553 2286.4 42.6671 2292.58 39.4287ZM2319.83 83.1994C2318.15 84.1328 2316.15 84.5994 2313.81 84.5994C2311.57 84.5994 2309.57 84.1328 2307.79 83.1994C2306.11 82.1728 2304.76 80.7728 2303.73 78.9995C2302.8 77.1328 2302.33 75.0328 2302.33 72.6994C2302.33 70.2728 2302.8 68.1728 2303.73 66.3994C2304.76 64.5328 2306.11 63.0861 2307.79 62.0594C2309.57 61.0328 2311.57 60.5194 2313.81 60.5194C2316.15 60.5194 2318.15 61.0328 2319.83 62.0594C2321.51 62.9928 2322.82 64.3928 2323.75 66.2594C2324.78 68.0328 2325.29 70.1328 2325.29 72.5594C2325.29 74.9861 2324.83 77.1328 2323.89 78.9995C2322.96 80.7728 2321.61 82.1728 2319.83 83.1994ZM2318.85 81.4595C2317.52 82.1906 2315.87 82.5994 2313.81 82.5994C2311.88 82.5994 2310.22 82.205 2308.78 81.459C2307.44 80.6268 2306.35 79.5024 2305.5 78.0515C2304.73 76.5065 2304.33 74.7358 2304.33 72.6994C2304.33 70.5388 2304.75 68.7775 2305.49 67.3492C2306.36 65.7772 2307.47 64.6061 2308.81 63.7789C2310.25 62.9522 2311.9 62.5194 2313.81 62.5194C2315.85 62.5194 2317.48 62.9642 2318.79 63.766L2318.83 63.7876L2318.86 63.8078C2320.16 64.5284 2321.19 65.6152 2321.96 67.1539L2321.99 67.2086L2322.02 67.2615C2322.84 68.6785 2323.29 70.4195 2323.29 72.5594C2323.29 74.7178 2322.88 76.5439 2322.11 78.0872C2321.36 79.5049 2320.29 80.6219 2318.85 81.4595Z" fill="white"></path>
<path fill-rule="evenodd" clip-rule="evenodd" d="M2231.03 109V2.51953H2262.47V109H2231.03ZM2233.03 107H2260.47V4.51953H2233.03V107Z" fill="white"></path>
<path fill-rule="evenodd" clip-rule="evenodd" d="M2159.54 104.059C2165.52 107.139 2172.28 108.679 2179.84 108.679C2187.4 108.679 2194.12 107.139 2200 104.059C2205.88 100.886 2210.5 96.5461 2213.86 91.0394C2217.22 85.5328 2218.9 79.3261 2218.9 72.4194C2218.9 65.5128 2217.18 59.3528 2213.72 53.9395C2210.36 48.5261 2205.74 44.2794 2199.86 41.1994C2193.98 38.0261 2187.26 36.4395 2179.7 36.4395C2172.14 36.4395 2165.38 38.0261 2159.4 41.1994C2153.52 44.2794 2148.9 48.5261 2145.54 53.9395C2142.18 59.3528 2140.5 65.5128 2140.5 72.4194C2140.5 79.3261 2142.18 85.5328 2145.54 91.0394C2149 96.5461 2153.66 100.886 2159.54 104.059ZM2158.47 39.4287C2164.77 36.0874 2171.86 34.4395 2179.7 34.4395C2187.54 34.4395 2194.59 36.0862 2200.8 39.4312C2206.97 42.6679 2211.86 47.1522 2215.42 52.8758C2219.09 58.632 2220.9 65.1667 2220.9 72.4194C2220.9 79.6666 2219.14 86.2385 2215.57 92.0812C2212.02 97.9012 2207.13 102.484 2200.95 105.819L2200.94 105.825L2200.93 105.831C2194.73 109.081 2187.68 110.679 2179.84 110.679C2172 110.679 2164.92 109.081 2158.63 105.837L2158.61 105.828L2158.59 105.819C2152.42 102.487 2147.49 97.9101 2143.85 92.102L2143.84 92.0916L2143.84 92.0812C2140.27 86.2385 2138.5 79.6666 2138.5 72.4194C2138.5 65.1726 2140.27 58.6413 2143.84 52.8847C2147.4 47.1553 2152.29 42.6671 2158.47 39.4287ZM2185.72 83.1994C2184.04 84.1328 2182.04 84.5994 2179.7 84.5994C2177.46 84.5994 2175.46 84.1328 2173.68 83.1994C2172 82.1728 2170.65 80.7728 2169.62 78.9995C2168.69 77.1328 2168.22 75.0328 2168.22 72.6994C2168.22 70.2728 2168.69 68.1728 2169.62 66.3994C2170.65 64.5328 2172 63.0861 2173.68 62.0594C2175.46 61.0328 2177.46 60.5194 2179.7 60.5194C2182.04 60.5194 2184.04 61.0328 2185.72 62.0594C2187.4 62.9928 2188.71 64.3928 2189.64 66.2594C2190.67 68.0328 2191.18 70.1328 2191.18 72.5594C2191.18 74.9861 2190.72 77.1328 2189.78 78.9995C2188.85 80.7728 2187.5 82.1728 2185.72 83.1994ZM2184.74 81.4595C2183.41 82.1906 2181.76 82.5994 2179.7 82.5994C2177.77 82.5994 2176.11 82.205 2174.67 81.459C2173.33 80.6268 2172.24 79.5024 2171.39 78.0515C2170.62 76.5065 2170.22 74.7358 2170.22 72.6994C2170.22 70.5388 2170.64 68.7775 2171.38 67.3492C2172.25 65.7772 2173.36 64.6061 2174.7 63.7789C2176.14 62.9522 2177.79 62.5194 2179.7 62.5194C2181.74 62.5194 2183.37 62.9642 2184.68 63.766L2184.72 63.7876L2184.75 63.8078C2186.05 64.5284 2187.08 65.6152 2187.85 67.1539L2187.88 67.2086L2187.91 67.2615C2188.73 68.6785 2189.18 70.4195 2189.18 72.5594C2189.18 74.7178 2188.77 76.5439 2188 78.0872C2187.25 79.5049 2186.18 80.6219 2184.74 81.4595Z" fill="white"></path>
<path fill-rule="evenodd" clip-rule="evenodd" d="M2072.95 104.9C2079.58 107.42 2086.72 108.68 2094.37 108.68C2102.68 108.68 2109.91 107.513 2116.07 105.18C2121.6 103.002 2126.64 100.071 2131.19 96.3893C2131.71 95.9692 2132.22 95.5393 2132.73 95.0997L2113.97 76.3397C2113.76 76.559 2113.54 76.7737 2113.33 76.9838C2111.04 79.1881 2108.36 80.8867 2105.29 82.0797C2102.02 83.3863 2098.29 84.0396 2094.09 84.0396C2090.36 84.0396 2086.9 83.433 2083.73 82.2197C2080.65 80.913 2077.99 79.093 2075.75 76.7597C2073.51 74.4263 2071.74 71.6263 2070.43 68.3597C2069.22 64.9997 2068.61 61.2197 2068.61 57.0197C2068.61 52.913 2069.22 49.2263 2070.43 45.9597C2071.74 42.5997 2073.51 39.753 2075.75 37.4197C2077.99 35.0863 2080.65 33.313 2083.73 32.0997C2086.9 30.8863 2090.36 30.2796 2094.09 30.2796C2098.38 30.2796 2102.12 30.9797 2105.29 32.3796C2107.91 33.5009 2110.19 34.9514 2112.15 36.7311C2112.64 37.1736 2113.1 37.6364 2113.55 38.1197L2132.17 19.3596C2131.67 18.9122 2131.17 18.4749 2130.65 18.0477C2126.23 14.3761 2121.14 11.4534 2115.37 9.27966C2108.93 6.85299 2101.84 5.63965 2094.09 5.63965C2086.44 5.63965 2079.34 6.94632 2072.81 9.55965C2066.28 12.0797 2060.54 15.6263 2055.59 20.1997C2050.74 24.773 2046.91 30.1863 2044.11 36.4397C2041.4 42.693 2040.05 49.553 2040.05 57.0197C2040.05 64.393 2041.4 71.253 2044.11 77.5997C2046.91 83.853 2050.78 89.313 2055.73 93.9797C2060.68 98.6463 2066.42 102.286 2072.95 104.9ZM2072.07 7.69986C2078.86 4.98592 2086.21 3.63965 2094.09 3.63965C2102.05 3.63965 2109.38 4.88652 2116.07 7.40811C2122.73 9.91631 2128.55 13.4019 2133.51 17.8745L2135.07 19.2796L2113.5 41.0115L2112.08 39.4762C2110.05 37.2717 2107.53 35.5157 2104.5 34.2179L2104.49 34.2138L2104.48 34.2095C2101.62 32.945 2098.17 32.2796 2094.09 32.2796C2090.58 32.2796 2087.37 32.8495 2084.45 33.9668C2081.64 35.0768 2079.22 36.6882 2077.19 38.8047C2075.16 40.9252 2073.52 43.537 2072.3 46.6755C2071.18 49.6788 2070.61 53.1177 2070.61 57.0197C2070.61 61.0143 2071.18 64.5488 2072.3 67.6488C2073.52 70.6839 2075.15 73.2499 2077.19 75.3746C2079.23 77.4973 2081.65 79.1603 2084.48 80.3638C2087.39 81.4736 2090.59 82.0396 2094.09 82.0396C2098.08 82.0396 2101.56 81.4185 2104.55 80.2227L2104.56 80.2191L2104.56 80.2156C2107.66 79.0108 2110.31 77.257 2112.53 74.9524L2113.94 73.4843L2135.66 95.2032L2134.04 96.6101C2128.92 101.054 2123.17 104.532 2116.8 107.04L2116.79 107.045L2116.78 107.05C2110.34 109.488 2102.86 110.68 2094.37 110.68C2086.49 110.68 2079.11 109.382 2072.24 106.769L2072.22 106.763L2072.21 106.757C2065.45 104.053 2059.49 100.28 2054.36 95.4344C2049.22 90.5858 2045.19 84.9087 2042.28 78.417L2042.28 78.4007L2042.27 78.3842C2039.45 71.7728 2038.05 64.6439 2038.05 57.0197C2038.05 49.3061 2039.45 42.1725 2042.27 35.6452L2042.28 35.6337L2042.28 35.6223C2045.19 29.1352 2049.17 23.5032 2054.22 18.7441L2054.23 18.7376L2054.23 18.7311C2059.37 13.9832 2065.32 10.3068 2072.07 7.69986Z" fill="white"></path>
<path fill-rule="evenodd" clip-rule="evenodd" d="M1966.31 124.36L1978.63 131.08L1990.81 108.68C1992.86 104.947 1994.21 101.914 1994.87 99.5802C1995.52 97.2469 1995.85 95.1936 1995.85 93.4202C1995.85 89.0336 1994.31 85.3469 1991.23 82.3602C1988.24 79.2802 1984.69 77.7402 1980.59 77.7402C1976.2 77.7402 1972.56 79.2802 1969.67 82.3602C1966.77 85.4402 1965.33 89.1269 1965.33 93.4202C1965.33 97.4336 1966.63 100.794 1969.25 103.5C1970.63 104.838 1972.08 105.834 1973.59 106.487C1974.22 106.76 1974.86 106.973 1975.51 107.127L1966.31 124.36ZM1972.64 108.256L1963.61 125.167L1979.43 133.795L1992.56 109.644C1992.56 109.642 1992.56 109.64 1992.56 109.637C1994.64 105.857 1996.08 102.67 1996.79 100.119C1997.48 97.67 1997.85 95.4286 1997.85 93.4202C1997.85 88.516 1996.11 84.3142 1992.64 80.9448C1989.3 77.511 1985.25 75.7402 1980.59 75.7402C1975.67 75.7402 1971.5 77.4915 1968.21 80.9909C1964.96 84.4483 1963.33 88.6271 1963.33 93.4202C1963.33 97.9138 1964.81 101.783 1967.81 104.889L1967.83 104.915L1967.86 104.939C1969.35 106.382 1970.95 107.499 1972.64 108.256Z" fill="white"></path>
<path fill-rule="evenodd" clip-rule="evenodd" d="M1886.26 105.49L1886.26 105.486C1880.91 102.218 1876.7 97.7556 1873.64 92.1351L1873.63 92.1168L1873.62 92.0984C1870.65 86.3615 1869.2 79.8315 1869.2 72.5595C1869.2 65.2876 1870.65 58.7576 1873.62 53.0207L1873.63 53.0087L1873.63 52.9968C1876.69 47.279 1880.91 42.804 1886.27 39.622C1891.76 36.3324 1898.1 34.7195 1905.22 34.7195C1909.55 34.7195 1913.66 35.4575 1917.54 36.9448C1917.76 37.0249 1917.98 37.1071 1918.2 37.1914V2.51953H1949.64V109H1918.9V107.274C1918.49 107.474 1918.06 107.667 1917.64 107.853C1913.74 109.553 1909.59 110.4 1905.22 110.4C1898.09 110.4 1891.76 108.786 1886.27 105.495L1886.26 105.49ZM1918.9 105.036C1919.59 104.676 1920.25 104.295 1920.9 103.894V107H1947.64V4.51953H1920.2V40.2651C1919.55 39.9366 1918.89 39.6297 1918.2 39.3446C1917.75 39.1605 1917.3 38.9855 1916.84 38.8195C1913.2 37.4195 1909.33 36.7195 1905.22 36.7195C1898.41 36.7195 1892.43 38.2595 1887.3 41.3395C1882.26 44.3262 1878.29 48.5262 1875.4 53.9395C1872.6 59.3529 1871.2 65.5595 1871.2 72.5595C1871.2 79.5595 1872.6 85.7662 1875.4 91.1795C1878.29 96.4995 1882.26 100.7 1887.3 103.78C1892.43 106.86 1898.41 108.4 1905.22 108.4C1909.33 108.4 1913.2 107.606 1916.84 106.02C1917.55 105.711 1918.23 105.383 1918.9 105.036ZM1920.2 78.7195C1921.23 76.9462 1921.74 74.8929 1921.74 72.5595C1921.74 70.2262 1921.27 68.2195 1920.34 66.5395C1919.41 64.7662 1918.05 63.3662 1916.28 62.3395C1914.6 61.3129 1912.64 60.7995 1910.4 60.7995C1908.16 60.7995 1906.15 61.3129 1904.38 62.3395C1902.7 63.3662 1901.35 64.7662 1900.32 66.5395C1899.29 68.3129 1898.78 70.3195 1898.78 72.5595C1898.78 74.7995 1899.25 76.8062 1900.18 78.5795C1901.21 80.3529 1902.61 81.7529 1904.38 82.7795C1906.15 83.8062 1908.11 84.3195 1910.26 84.3195C1912.59 84.3195 1914.6 83.8529 1916.28 82.9195C1917.96 81.8929 1919.27 80.4929 1920.2 78.7195ZM1915.27 81.1913C1916.62 80.3584 1917.67 79.2356 1918.43 77.7881L1918.45 77.7524L1918.47 77.7175C1919.29 76.2889 1919.74 74.5906 1919.74 72.5595C1919.74 70.4938 1919.33 68.8363 1918.59 67.5108L1918.58 67.4911L1918.57 67.471C1917.82 66.039 1916.73 64.9128 1915.28 64.0704L1915.26 64.0585L1915.24 64.0461C1913.91 63.2367 1912.32 62.7995 1910.4 62.7995C1908.49 62.7995 1906.84 63.2322 1905.4 64.0588C1904.03 64.9033 1902.91 66.0521 1902.05 67.5416C1901.22 68.9825 1900.78 70.6377 1900.78 72.5595C1900.78 74.4983 1901.18 76.1679 1901.93 77.6136C1902.78 79.0672 1903.92 80.2041 1905.38 81.0487C1906.83 81.8905 1908.45 82.3195 1910.26 82.3195C1912.31 82.3195 1913.95 81.9151 1915.27 81.1913Z" fill="white"></path>
<path fill-rule="evenodd" clip-rule="evenodd" d="M1830.63 68.3597V107H1858.07V62.0597C1858.07 57.1131 1856.95 52.7731 1854.71 49.0397C1852.47 45.2131 1849.39 42.2264 1845.47 40.0797C1841.64 37.8397 1837.26 36.7197 1832.31 36.7197C1826.8 36.7197 1821.86 37.7931 1817.47 39.9397C1817.06 40.1472 1816.65 40.3634 1816.25 40.5883C1815.56 40.9788 1814.89 41.3955 1814.25 41.8385V38.1197H1786.81V107H1814.25V68.3597C1814.25 67.6052 1814.31 66.9013 1814.43 66.2481C1814.59 65.3662 1814.86 64.5768 1815.23 63.8797C1815.53 63.3515 1815.87 62.8766 1816.25 62.4551C1816.81 61.8341 1817.45 61.3289 1818.17 60.9397C1819.48 60.2864 1820.92 59.9597 1822.51 59.9597C1824.84 59.9597 1826.76 60.7064 1828.25 62.1997C1829.84 63.5997 1830.63 65.6531 1830.63 68.3597ZM1819.09 62.7151C1820.09 62.2211 1821.22 61.9597 1822.51 61.9597C1824.37 61.9597 1825.76 62.5367 1826.84 63.6139L1826.88 63.6581L1826.93 63.6994C1827.97 64.6195 1828.63 66.0556 1828.63 68.3597V109H1860.07V62.0597C1860.07 56.8069 1858.88 52.1062 1856.43 48.0247C1854.01 43.8929 1850.68 40.6563 1846.46 38.3389C1842.29 35.9093 1837.56 34.7197 1832.31 34.7197C1826.54 34.7197 1821.28 35.8465 1816.59 38.1433L1816.58 38.1509C1816.47 38.2054 1816.36 38.2605 1816.25 38.3161V36.1197H1784.81V109H1816.25V68.3597C1816.25 66.837 1816.53 65.696 1816.98 64.8478C1817.55 63.8587 1818.26 63.1713 1819.09 62.7151Z" fill="white"></path>
<path fill-rule="evenodd" clip-rule="evenodd" d="M1717.57 104.76C1722.8 107.373 1728.77 108.68 1735.49 108.68C1742.21 108.68 1748.14 107.373 1753.27 104.76C1758.5 102.147 1762.56 98.5535 1765.45 93.9801C1768.44 89.3135 1769.93 83.9468 1769.93 77.8801V38.1201H1742.49V78.1601C1742.49 80.3068 1741.79 82.0801 1740.39 83.4801C1739.09 84.7868 1737.45 85.4401 1735.49 85.4401C1734.09 85.4401 1732.83 85.1601 1731.71 84.6001C1730.69 83.9468 1729.85 83.0601 1729.19 81.9401C1728.63 80.8201 1728.35 79.5601 1728.35 78.1601V38.1201H1700.91V77.8801C1700.91 83.8535 1702.41 89.1735 1705.39 93.8401C1708.38 98.5068 1712.44 102.147 1717.57 104.76ZM1730.95 80.9885C1730.57 80.1902 1730.35 79.2603 1730.35 78.1601V36.1201H1698.91V77.8801C1698.91 84.2045 1700.5 89.9044 1703.71 94.9182C1706.9 99.8968 1711.23 103.774 1716.67 106.542L1716.67 106.546L1716.68 106.549C1722.22 109.321 1728.51 110.68 1735.49 110.68C1742.47 110.68 1748.72 109.322 1754.17 106.546C1759.7 103.784 1764.04 99.9556 1767.14 95.0535C1770.35 90.0358 1771.93 84.2892 1771.93 77.8801V36.1201H1740.49V78.1601C1740.49 79.8256 1739.97 81.0744 1738.98 82.0659C1738.07 82.973 1736.96 83.4401 1735.49 83.4401C1734.41 83.4401 1733.49 83.2333 1732.7 82.8566C1732.01 82.4013 1731.43 81.7901 1730.95 80.9885Z" fill="white"></path>
<path fill-rule="evenodd" clip-rule="evenodd" d="M1629.25 104.059C1635.22 107.139 1641.99 108.679 1649.55 108.679C1657.11 108.679 1663.83 107.139 1669.71 104.059C1675.59 100.886 1680.21 96.5461 1683.57 91.0394C1686.93 85.5328 1688.61 79.3261 1688.61 72.4194C1688.61 65.5128 1686.88 59.3528 1683.43 53.9395C1680.07 48.5261 1675.45 44.2794 1669.57 41.1994C1663.69 38.0261 1656.97 36.4395 1649.41 36.4395C1641.85 36.4395 1635.08 38.0261 1629.11 41.1994C1623.23 44.2794 1618.61 48.5261 1615.25 53.9395C1611.89 59.3528 1610.21 65.5128 1610.21 72.4194C1610.21 79.3261 1611.89 85.5328 1615.25 91.0394C1618.7 96.5461 1623.37 100.886 1629.25 104.059ZM1628.17 39.4332C1634.47 36.089 1641.56 34.4395 1649.41 34.4395C1657.25 34.4395 1664.3 36.0869 1670.51 39.4335C1676.68 42.67 1681.57 47.1535 1685.12 52.8758C1688.79 58.632 1690.61 65.1667 1690.61 72.4194C1690.61 79.6666 1688.84 86.2385 1685.28 92.0812C1681.73 97.9012 1676.84 102.484 1670.66 105.819L1670.65 105.825L1670.64 105.831C1664.43 109.081 1657.39 110.679 1649.55 110.679C1641.71 110.679 1634.62 109.081 1628.33 105.837L1628.32 105.828L1628.3 105.819C1622.12 102.487 1617.2 97.9101 1613.55 92.102L1613.55 92.0916L1613.54 92.0812C1609.98 86.2385 1608.21 79.6666 1608.21 72.4194C1608.21 65.1726 1609.98 58.6413 1613.55 52.8847C1617.1 47.158 1621.99 42.6714 1628.17 39.4332ZM1655.43 83.1994C1653.75 84.1328 1651.74 84.5994 1649.41 84.5994C1647.17 84.5994 1645.16 84.1328 1643.39 83.1994C1641.71 82.1728 1640.36 80.7728 1639.33 78.9995C1638.4 77.1328 1637.93 75.0328 1637.93 72.6994C1637.93 70.2728 1638.4 68.1728 1639.33 66.3994C1640.36 64.5328 1641.71 63.0861 1643.39 62.0594C1645.16 61.0328 1647.17 60.5194 1649.41 60.5194C1651.74 60.5194 1653.75 61.0328 1655.43 62.0594C1657.11 62.9928 1658.42 64.3928 1659.35 66.2594C1660.38 68.0328 1660.89 70.1328 1660.89 72.5594C1660.89 74.9861 1660.42 77.1328 1659.49 78.9995C1658.56 80.7728 1657.2 82.1728 1655.43 83.1994ZM1657.71 78.0871C1658.48 76.5438 1658.89 74.7177 1658.89 72.5594C1658.89 70.4195 1658.44 68.6785 1657.62 67.2615L1657.59 67.2086L1657.56 67.1539C1656.79 65.6152 1655.76 64.5284 1654.46 63.8078L1654.42 63.7876L1654.39 63.766C1653.07 62.9642 1651.44 62.5194 1649.41 62.5194C1647.5 62.5194 1645.85 62.9522 1644.41 63.7789C1643.07 64.6053 1641.96 65.7751 1641.09 67.3449C1640.34 68.774 1639.93 70.5366 1639.93 72.6994C1639.93 74.7352 1640.33 76.5055 1641.09 78.0502C1641.94 79.5017 1643.03 80.6266 1644.38 81.459C1645.82 82.205 1647.48 82.5994 1649.41 82.5994C1651.47 82.5994 1653.12 82.1906 1654.44 81.4595C1655.88 80.6219 1656.96 79.5048 1657.71 78.0871Z" fill="white"></path>
<path fill-rule="evenodd" clip-rule="evenodd" d="M1548.8 38.1197V107H1576.24V69.7597C1576.24 68.8566 1576.3 68.0177 1576.42 67.2429C1576.7 65.4392 1577.31 63.9835 1578.24 62.8757C1578.27 62.8366 1578.31 62.798 1578.34 62.7597C1579.74 61.0797 1581.84 60.2397 1584.64 60.2397C1586.32 60.2397 1587.77 60.5197 1588.98 61.0797C1589.48 61.2581 1589.93 61.457 1590.33 61.6763C1590.99 62.0307 1591.52 62.4385 1591.92 62.8997L1607.32 41.0597C1605.92 39.6597 1604.05 38.5864 1601.72 37.8397C1599.48 37.0931 1596.77 36.7197 1593.6 36.7197C1587.66 36.7197 1582.54 37.9622 1578.24 40.4471C1577.55 40.8442 1576.89 41.273 1576.24 41.7335V38.1197H1548.8ZM1578.24 38.1652V36.1197H1546.8V109H1578.24V69.7597C1578.24 66.9491 1578.88 65.1685 1579.84 64.083L1579.86 64.0618L1579.88 64.0401C1580.79 62.9381 1582.25 62.2397 1584.64 62.2397C1586.1 62.2397 1587.25 62.4839 1588.14 62.8957L1588.22 62.9331L1588.31 62.9632C1589.41 63.3585 1590.06 63.8089 1590.41 64.2167L1592.09 66.1303L1609.92 40.8362L1608.73 39.6455C1607.06 37.9756 1604.9 36.76 1602.34 35.9389C1599.84 35.1078 1596.91 34.7197 1593.6 34.7197C1587.81 34.7197 1582.67 35.8492 1578.24 38.1652Z" fill="white"></path>
<path fill-rule="evenodd" clip-rule="evenodd" d="M1469.31 134.72C1475.28 137.333 1482.14 138.64 1489.89 138.64C1497.54 138.64 1504.4 137.1 1510.47 134.02C1516.53 131.033 1521.34 126.786 1524.89 121.28C1528.43 115.773 1530.21 109.24 1530.21 101.68V38.1197H1503.47V40.6137C1502.83 40.2392 1502.16 39.8906 1501.47 39.5677C1500.89 39.3008 1500.3 39.0514 1499.69 38.8197C1496.33 37.4197 1492.64 36.7197 1488.63 36.7197C1482.19 36.7197 1476.49 38.2131 1471.55 41.1997C1466.6 44.1864 1462.73 48.2464 1459.93 53.3797C1457.13 58.4197 1455.73 64.1131 1455.73 70.4597C1455.73 76.7131 1457.13 82.4064 1459.93 87.5397C1462.73 92.6731 1466.6 96.7331 1471.55 99.7197C1476.49 102.706 1482.19 104.2 1488.63 104.2C1492.64 104.2 1496.33 103.546 1499.69 102.24C1500.05 102.091 1500.41 101.937 1500.77 101.776C1501.46 101.462 1502.13 101.125 1502.77 100.765V102.8C1502.77 102.878 1502.77 102.956 1502.77 103.034C1502.72 107.025 1501.41 110.074 1498.85 112.18C1496.33 114.326 1492.83 115.4 1488.35 115.4C1484.61 115.4 1481.44 114.7 1478.83 113.3C1476.77 112.272 1474.86 110.926 1473.09 109.263C1472.61 108.812 1472.15 108.337 1471.69 107.84L1455.45 123.94C1458.71 128.606 1463.33 132.2 1469.31 134.72ZM1484.57 65.4197C1485.41 63.7397 1486.62 62.3864 1488.21 61.3597C1489.79 60.3331 1491.66 59.8197 1493.81 59.8197C1496.05 59.8197 1497.91 60.3331 1499.41 61.3597C1500.99 62.3864 1502.21 63.6931 1503.05 65.2797C1503.89 66.8664 1504.31 68.5464 1504.31 70.3197C1504.31 72.0931 1503.89 73.7731 1503.05 75.3597C1502.21 76.9464 1500.99 78.2531 1499.41 79.2797C1497.82 80.3064 1495.91 80.8197 1493.67 80.8197C1491.52 80.8197 1489.65 80.3064 1488.07 79.2797C1486.57 78.1597 1485.41 76.8064 1484.57 75.2197C1483.73 73.5397 1483.31 71.9064 1483.31 70.3197C1483.31 68.6397 1483.73 67.0064 1484.57 65.4197ZM1489.21 77.6373C1490.42 78.4036 1491.88 78.8197 1493.67 78.8197C1495.59 78.8197 1497.11 78.3816 1498.32 77.6006C1499.64 76.7494 1500.61 75.6927 1501.28 74.424C1501.97 73.1219 1502.31 71.7627 1502.31 70.3197C1502.31 68.8768 1501.97 67.5176 1501.28 66.2155C1500.61 64.9468 1499.64 63.8901 1498.32 63.0389L1498.3 63.0237L1498.27 63.0078C1497.19 62.2595 1495.74 61.8197 1493.81 61.8197C1491.99 61.8197 1490.52 62.2491 1489.29 63.0389C1488.01 63.8727 1487.04 64.9558 1486.36 66.3142L1486.35 66.335L1486.34 66.3555C1485.64 67.6742 1485.31 68.9882 1485.31 70.3197C1485.31 71.5375 1485.63 72.8587 1486.35 74.303C1487.03 75.591 1487.98 76.7004 1489.21 77.6373ZM1500.73 103.975C1500.5 106.995 1499.4 109.136 1497.58 110.634L1497.56 110.646L1497.55 110.657C1495.5 112.402 1492.52 113.4 1488.35 113.4C1484.86 113.4 1482.03 112.746 1479.77 111.537L1479.75 111.523L1479.72 111.511C1477.34 110.322 1475.16 108.655 1473.16 106.486L1471.75 104.958L1452.84 123.706L1453.81 125.087C1457.32 130.1 1462.25 133.912 1468.52 136.558C1474.79 139.297 1481.92 140.64 1489.89 140.64C1497.81 140.64 1504.98 139.045 1511.36 135.81C1517.74 132.668 1522.82 128.182 1526.57 122.363C1530.35 116.486 1532.21 109.563 1532.21 101.68V36.1197H1501.47V37.3793C1501.13 37.2341 1500.78 37.0945 1500.43 36.9607C1496.81 35.4578 1492.87 34.7197 1488.63 34.7197C1481.87 34.7197 1475.81 36.2916 1470.51 39.4876C1465.26 42.6596 1461.14 46.9816 1458.17 52.422C1455.2 57.785 1453.73 63.8139 1453.73 70.4597C1453.73 77.0238 1455.2 83.05 1458.17 88.4974C1461.14 93.9378 1465.26 98.2598 1470.51 101.432C1475.81 104.628 1481.87 106.2 1488.63 106.2C1492.86 106.2 1496.8 105.51 1500.41 104.104L1500.43 104.099L1500.44 104.093C1500.54 104.054 1500.63 104.015 1500.73 103.975Z" fill="white"></path>
<path fill-rule="evenodd" clip-rule="evenodd" d="M1398.79 104.654L1372.55 38.1201H1401.67L1411.56 74.4582L1421.27 38.1201H1450.25L1423.23 107L1411.61 136.4H1384.73L1398.79 104.654ZM1424.59 109L1412.97 138.4H1381.66L1396.62 104.609L1369.61 36.1201H1403.2L1411.54 66.7772L1419.74 36.1201H1453.19L1425.61 106.406L1425.62 106.409L1425.09 107.73L1425.09 107.735L1424.6 109H1424.59Z" fill="white"></path>
<path fill-rule="evenodd" clip-rule="evenodd" d="M1300.12 103.78C1305.07 106.86 1310.76 108.4 1317.2 108.4C1321.22 108.4 1324.9 107.746 1328.26 106.44C1329.6 105.897 1330.85 105.278 1332 104.582C1332.7 104.16 1333.37 103.71 1334 103.231V107H1360.74V38.1197H1334V41.9081C1333.37 41.438 1332.7 40.9987 1332 40.5903C1330.85 39.9161 1329.6 39.3259 1328.26 38.8197C1324.9 37.4197 1321.22 36.7197 1317.2 36.7197C1310.76 36.7197 1305.07 38.2597 1300.12 41.3397C1295.18 44.3264 1291.3 48.5264 1288.5 53.9397C1285.7 59.3531 1284.3 65.5597 1284.3 72.5597C1284.3 79.5597 1285.7 85.7664 1288.5 91.1797C1291.3 96.4997 1295.18 100.7 1300.12 103.78ZM1331.62 81.0997C1329.57 83.2464 1326.82 84.3197 1323.36 84.3197C1321.22 84.3197 1319.26 83.8064 1317.48 82.7797C1315.71 81.7531 1314.31 80.3531 1313.28 78.5797C1312.35 76.8064 1311.88 74.7997 1311.88 72.5597C1311.88 70.3197 1312.4 68.3131 1313.42 66.5397C1314.45 64.7664 1315.8 63.3664 1317.48 62.3397C1319.26 61.3131 1321.26 60.7997 1323.5 60.7997C1325.74 60.7997 1327.7 61.3131 1329.38 62.3397C1331.16 63.3664 1332.51 64.7664 1333.44 66.5397C1334.38 68.2197 1334.84 70.2264 1334.84 72.5597C1334.84 76.0131 1333.77 78.8597 1331.62 81.0997ZM1315.04 77.6138C1315.88 79.0674 1317.03 80.2043 1318.49 81.0489C1319.94 81.8907 1321.55 82.3197 1323.36 82.3197C1326.37 82.3197 1328.56 81.4048 1330.18 79.7173L1330.18 79.7159C1331.93 77.8917 1332.84 75.5608 1332.84 72.5597C1332.84 70.4939 1332.43 68.8365 1331.7 67.511L1331.68 67.4912L1331.67 67.4712C1330.92 66.0392 1329.84 64.9129 1328.38 64.0706L1328.36 64.0587L1328.34 64.0463C1327.02 63.2369 1325.43 62.7997 1323.5 62.7997C1321.59 62.7997 1319.94 63.2324 1318.51 64.059C1317.13 64.9035 1316.02 66.0523 1315.15 67.5418C1314.32 68.9827 1313.88 70.6379 1313.88 72.5597C1313.88 74.4985 1314.28 76.1681 1315.04 77.6138ZM1299.08 39.6333C1304.37 36.3411 1310.44 34.7197 1317.2 34.7197C1321.44 34.7197 1325.38 35.458 1329 36.9612C1330.05 37.359 1331.05 37.8069 1332 38.3055V36.1197H1362.74V109H1332V106.886C1331.06 107.401 1330.06 107.87 1329.01 108.293L1329 108.299L1328.99 108.304C1325.37 109.71 1321.44 110.4 1317.2 110.4C1310.43 110.4 1304.36 108.775 1299.07 105.478C1293.81 102.204 1289.69 97.735 1286.73 92.1112L1286.73 92.0986C1283.76 86.3617 1282.3 79.8317 1282.3 72.5597C1282.3 65.2877 1283.76 58.7578 1286.73 53.0209C1289.69 47.3018 1293.8 42.8211 1299.08 39.6333Z" fill="white"></path>
<path fill-rule="evenodd" clip-rule="evenodd" d="M1240.3 109V2.51953H1271.74V109H1240.3ZM1242.3 107H1269.74V4.51953H1242.3V107Z" fill="white"></path>
<path fill-rule="evenodd" clip-rule="evenodd" d="M1175.05 72.0003V107H1147.05V7.32031H1193.25C1199.69 7.32031 1205.48 8.62698 1210.61 11.2403C1215.84 13.7603 1219.94 17.447 1222.93 22.3003C1226.01 27.0603 1227.55 32.847 1227.55 39.6603C1227.55 46.3803 1226.01 52.167 1222.93 57.0203C1219.94 61.8736 1215.84 65.607 1210.61 68.2203C1205.48 70.7403 1199.69 72.0003 1193.25 72.0003H1175.05ZM1177.05 74.0003V109H1145.05V5.32031H1193.25C1199.96 5.32031 1206.06 6.68235 1211.5 9.44869C1217.05 12.1281 1221.44 16.0633 1224.62 21.2327C1227.94 26.3729 1229.55 32.5488 1229.55 39.6603C1229.55 46.6895 1227.94 52.8584 1224.63 58.0808C1221.44 63.254 1217.05 67.2358 1211.5 70.0092L1211.5 70.0124L1211.49 70.0156C1206.05 72.6864 1199.96 74.0003 1193.25 74.0003H1177.05ZM1175.05 51.8403H1187.79C1189.94 51.8403 1191.9 51.4203 1193.67 50.5803C1195.54 49.647 1197.03 48.2936 1198.15 46.5203C1199.27 44.6536 1199.83 42.367 1199.83 39.6603C1199.83 36.9536 1199.27 34.7136 1198.15 32.9403C1197.03 31.0736 1195.54 29.7203 1193.67 28.8803C1191.9 27.947 1189.94 27.4803 1187.79 27.4803H1175.05V51.8403ZM1177.05 29.4803V49.8403H1187.79C1189.66 49.8403 1191.32 49.4776 1192.79 48.7817C1194.32 48.0164 1195.53 46.923 1196.45 45.4729C1197.33 43.9871 1197.83 42.0821 1197.83 39.6603C1197.83 37.2234 1197.33 35.3814 1196.46 34.0083L1196.45 33.9889L1196.43 33.9693C1195.51 32.4292 1194.32 31.3658 1192.85 30.7042L1192.79 30.6789L1192.74 30.6501C1191.27 29.8787 1189.64 29.4803 1187.79 29.4803H1177.05Z" fill="white"></path>
<path fill-rule="evenodd" clip-rule="evenodd" d="M1044.35 38.1197V107H1071.79V69.7597C1071.79 68.8566 1071.85 68.0177 1071.97 67.2429C1072.25 65.4392 1072.85 63.9835 1073.79 62.8757C1073.82 62.8366 1073.85 62.798 1073.89 62.7597C1075.29 61.0797 1077.39 60.2397 1080.19 60.2397C1081.87 60.2397 1083.31 60.5197 1084.53 61.0797C1085.03 61.2581 1085.48 61.457 1085.88 61.6763C1086.53 62.0307 1087.06 62.4385 1087.47 62.8997L1102.87 41.0597C1101.47 39.6597 1099.6 38.5864 1097.27 37.8397C1095.03 37.0931 1092.32 36.7197 1089.15 36.7197C1083.21 36.7197 1078.09 37.9622 1073.79 40.4471C1073.1 40.8442 1072.43 41.273 1071.79 41.7335V38.1197H1044.35ZM1073.79 38.1652V36.1197H1042.35V109H1073.79V69.7597C1073.79 66.9491 1074.43 65.1685 1075.39 64.083L1075.4 64.0618L1075.42 64.0401C1076.34 62.9381 1077.8 62.2397 1080.19 62.2397C1081.65 62.2397 1082.8 62.4839 1083.69 62.8957L1083.77 62.9331L1083.85 62.9632C1084.96 63.3585 1085.6 63.8089 1085.96 64.2167L1087.63 66.1303L1105.47 40.8362L1104.28 39.6455C1102.61 37.9756 1100.45 36.76 1097.89 35.9389C1095.39 35.1078 1092.46 34.7197 1089.15 34.7197C1083.36 34.7197 1078.22 35.8492 1073.79 38.1652Z" fill="white"></path>
<path fill-rule="evenodd" clip-rule="evenodd" d="M975.109 104.76C980.336 107.373 986.309 108.68 993.029 108.68C999.749 108.68 1005.68 107.373 1010.81 104.76C1016.04 102.147 1020.1 98.5535 1022.99 93.9801C1025.98 89.3135 1027.47 83.9468 1027.47 77.8801V38.1201H1000.03V78.1601C1000.03 80.3068 999.329 82.0801 997.929 83.4801C996.622 84.7868 994.989 85.4401 993.029 85.4401C991.629 85.4401 990.369 85.1601 989.249 84.6001C988.222 83.9468 987.382 83.0601 986.729 81.9401C986.169 80.8201 985.889 79.5601 985.889 78.1601V38.1201H958.449V77.8801C958.449 83.8535 959.942 89.1735 962.929 93.8401C965.916 98.5068 969.976 102.147 975.109 104.76ZM988.49 80.9885C988.102 80.1902 987.889 79.2603 987.889 78.1601V36.1201H956.449V77.8801C956.449 84.2045 958.036 89.9044 961.245 94.9182C964.431 99.8968 968.764 103.774 974.202 106.542L974.208 106.546L974.215 106.549C979.758 109.321 986.045 110.68 993.029 110.68C1000.01 110.68 1006.25 109.322 1011.71 106.546C1017.23 103.784 1021.57 99.9556 1024.68 95.0535C1027.89 90.0358 1029.47 84.2892 1029.47 77.8801V36.1201H998.029V78.1601C998.029 79.8256 997.506 81.0744 996.515 82.0659C995.608 82.973 994.494 83.4401 993.029 83.4401C991.945 83.4401 991.027 83.2333 990.236 82.8566C989.55 82.4013 988.967 81.7901 988.49 80.9885Z" fill="white"></path>
<path fill-rule="evenodd" clip-rule="evenodd" d="M886.784 104.059C892.758 107.139 899.524 108.679 907.084 108.679C914.644 108.679 921.364 107.139 927.244 104.059C933.124 100.886 937.744 96.5461 941.104 91.0394C944.464 85.5328 946.144 79.3261 946.144 72.4194C946.144 65.5128 944.418 59.3528 940.964 53.9395C937.604 48.5261 932.984 44.2794 927.104 41.1994C921.224 38.0261 914.504 36.4395 906.944 36.4395C899.384 36.4395 892.618 38.0261 886.644 41.1994C880.764 44.2794 876.144 48.5261 872.784 53.9395C869.424 59.3528 867.744 65.5128 867.744 72.4194C867.744 79.3261 869.424 85.5328 872.784 91.0394C876.238 96.5461 880.904 100.886 886.784 104.059ZM885.71 39.4311C892.004 36.0882 899.098 34.4395 906.944 34.4395C914.787 34.4395 921.838 36.0869 928.043 39.4335C934.216 42.6693 939.102 47.1515 942.656 52.8721C946.326 58.6292 948.144 65.1651 948.144 72.4194C948.144 79.6666 946.377 86.2385 942.812 92.0812C939.26 97.9012 934.374 102.484 928.194 105.819L928.183 105.825L928.172 105.831C921.968 109.081 914.922 110.679 907.084 110.679C899.246 110.679 892.158 109.081 885.868 105.837L885.851 105.828L885.834 105.819C879.659 102.487 874.732 97.9101 871.09 92.102L871.083 92.0916L871.077 92.0812C867.512 86.2385 865.744 79.6666 865.744 72.4194C865.744 65.1726 867.512 58.6413 871.085 52.8847C874.64 47.1568 879.53 42.6694 885.71 39.4311ZM912.964 83.1994C911.284 84.1328 909.278 84.5994 906.944 84.5994C904.704 84.5994 902.698 84.1328 900.924 83.1994C899.244 82.1728 897.891 80.7728 896.864 78.9995C895.931 77.1328 895.464 75.0328 895.464 72.6994C895.464 70.2728 895.931 68.1728 896.864 66.3994C897.891 64.5328 899.244 63.0861 900.924 62.0594C902.698 61.0328 904.704 60.5194 906.944 60.5194C909.278 60.5194 911.284 61.0328 912.964 62.0594C914.644 62.9928 915.951 64.3928 916.884 66.2594C917.911 68.0328 918.424 70.1328 918.424 72.5594C918.424 74.9861 917.958 77.1328 917.024 78.9995C916.091 80.7728 914.738 82.1728 912.964 83.1994ZM911.977 81.4602C910.654 82.1909 909.002 82.5994 906.944 82.5994C905.016 82.5994 903.353 82.2051 901.913 81.4593C900.57 80.6269 899.477 79.5019 898.626 78.0502C897.865 76.5055 897.464 74.7352 897.464 72.6994C897.464 70.5377 897.878 68.7758 898.626 67.3471C899.493 65.7758 900.602 64.6052 901.947 63.7784C903.383 62.952 905.032 62.5194 906.944 62.5194C908.979 62.5194 910.609 62.9642 911.921 63.766L911.957 63.7876L911.993 63.8078C913.29 64.5284 914.326 65.6152 915.096 67.1539L915.123 67.2086L915.154 67.2615C915.974 68.6785 916.424 70.4195 916.424 72.5594C916.424 74.7169 916.013 76.5424 915.245 78.0853C914.495 79.5043 913.419 80.6221 911.977 81.4602Z" fill="white"></path>
<path fill-rule="evenodd" clip-rule="evenodd" d="M816.714 67.1515L781.994 7.32031H814.194L830.854 38.2835L847.514 7.32031H879.014L844.714 65.9946V107H816.714V67.1515ZM846.714 66.5363V109H814.714V67.6898L778.521 5.32031H815.389L830.854 34.0626L846.319 5.32031H882.5L846.714 66.5363Z" fill="white"></path>
<path fill-rule="evenodd" clip-rule="evenodd" d="M691.846 104.199C697.913 107.186 704.96 108.679 712.986 108.679C719.24 108.679 724.793 107.699 729.646 105.739C734.5 103.779 738.653 100.839 742.106 96.9194L728.386 83.3394C727.937 83.8504 727.476 84.3323 727.004 84.785C725.32 86.3999 723.495 87.6447 721.526 88.5195C719.1 89.5461 716.253 90.0594 712.986 90.0594C709.626 90.0594 706.826 89.4061 704.586 88.0995C702.582 86.9301 700.988 85.2748 699.806 83.1337C699.667 82.8823 699.534 82.6242 699.406 82.3595C699.238 81.9665 699.082 81.5599 698.939 81.1395L746.306 80.8194C746.773 78.7661 747.053 76.9928 747.146 75.4995C747.333 73.9128 747.426 72.4194 747.426 71.0195C747.426 64.2995 745.84 58.3261 742.666 53.0994C739.586 47.8728 735.293 43.8128 729.786 40.9194C724.28 37.9328 717.933 36.4395 710.746 36.4395C703.466 36.4395 696.933 38.0261 691.146 41.1994C685.36 44.2794 680.786 48.5261 677.426 53.9395C674.16 59.3528 672.526 65.5594 672.526 72.5594C672.526 79.6528 674.206 85.9528 677.566 91.4594C681.02 96.8728 685.78 101.119 691.846 104.199ZM690.196 39.4398C696.304 36.0926 703.17 34.4395 710.746 34.4395C718.211 34.4395 724.89 35.9917 730.728 39.1547C736.545 42.2139 741.111 46.5257 744.382 52.0722C747.76 57.6397 749.426 63.9753 749.426 71.0195C749.426 72.4913 749.329 74.0453 749.139 75.6791C749.034 77.3003 748.733 79.1669 748.257 81.2627L747.905 82.8087L730.81 82.9242L744.854 96.8255L743.607 98.2415C739.948 102.396 735.537 105.518 730.395 107.594C725.262 109.667 719.447 110.679 712.986 110.679C704.71 110.679 697.351 109.139 690.963 105.994L690.952 105.988L690.941 105.983C684.575 102.751 679.537 98.268 675.88 92.5351L675.869 92.5182L675.859 92.5012C672.289 86.65 670.526 79.9825 670.526 72.5594C670.526 65.2354 672.239 58.664 675.714 52.9061L675.72 52.8954L675.727 52.8847C679.277 47.1661 684.112 42.6801 690.196 39.4398ZM726.01 82.9566L702.138 83.1179C703.071 84.4983 704.224 85.5724 705.594 86.3719C707.451 87.4548 709.878 88.0594 712.986 88.0594C716.039 88.0594 718.605 87.5806 720.73 86.6847C722.61 85.8467 724.371 84.6145 726.01 82.9566ZM699.665 62.3139C700.752 60.1189 702.206 58.4007 704.026 57.1594C706.08 55.7594 708.506 55.0594 711.306 55.0594C714.013 55.0594 716.253 55.6661 718.026 56.8794C719.749 58.0583 721.032 59.81 721.874 62.1343C721.898 62.2022 721.922 62.2706 721.946 62.3394C722.169 62.8961 722.365 63.4927 722.535 64.129L698.862 64.3205C698.987 63.929 699.121 63.5486 699.266 63.1794C699.393 62.8831 699.526 62.5946 699.665 62.3139ZM701.948 62.2954L719.731 62.1516C719.022 60.5003 718.062 59.3275 716.897 58.5301C715.533 57.5971 713.715 57.0594 711.306 57.0594C708.856 57.0594 706.833 57.6664 705.153 58.8119C703.896 59.6687 702.823 60.8161 701.948 62.2954Z" fill="white"></path>
<path fill-rule="evenodd" clip-rule="evenodd" d="M580.941 107V7.32031H628.541C634.608 7.32031 639.881 8.48698 644.361 10.8203C648.935 13.0603 652.481 16.187 655.001 20.2003C657.521 24.1203 658.781 28.647 658.781 33.7803C658.781 40.8736 656.261 46.6603 651.221 51.1403C650.62 51.6749 649.985 52.1823 649.317 52.6625C648.715 53.0957 648.085 53.5068 647.428 53.8958C648.099 54.2579 648.748 54.6403 649.375 55.043C650.697 55.8921 651.919 56.8312 653.041 57.8603C658.641 62.9936 661.441 69.5736 661.441 77.6003C661.441 83.387 659.995 88.5203 657.101 93.0003C654.208 97.387 650.148 100.84 644.921 103.36C639.788 105.787 633.768 107 626.861 107H580.941ZM608.381 27.4803V45.9603H620.701C623.688 45.9603 626.161 45.2136 628.121 43.7203C630.081 42.227 631.061 39.8936 631.061 36.7203C631.061 33.547 630.081 31.2136 628.121 29.7203C626.161 28.227 623.688 27.4803 620.701 27.4803H608.381ZM610.381 43.9603H620.701C623.346 43.9603 625.367 43.3048 626.909 42.1294C628.235 41.1195 629.061 39.4662 629.061 36.7203C629.061 33.9745 628.235 32.3211 626.909 31.3112C625.367 30.1358 623.346 29.4803 620.701 29.4803H610.381V43.9603ZM608.381 86.8403H621.961C625.508 86.8403 628.355 85.907 630.501 84.0403C632.648 82.0803 633.721 79.4203 633.721 76.0603C633.721 73.8203 633.208 71.907 632.181 70.3203C631.248 68.6403 629.895 67.3803 628.121 66.5403C626.441 65.7003 624.388 65.2803 621.961 65.2803H608.381V86.8403ZM610.381 67.2803V84.8403H621.961C625.137 84.8403 627.473 84.0149 629.17 82.5472C630.825 81.0279 631.721 78.9443 631.721 76.0603C631.721 74.1333 631.283 72.6139 630.502 71.4068L630.466 71.3504L630.433 71.2916C629.707 69.9847 628.67 69.0131 627.265 68.3478L627.246 68.3387L627.227 68.3292C625.894 67.6625 624.165 67.2803 621.961 67.2803H610.381ZM578.941 109V5.32031H628.541C634.856 5.32031 640.451 6.53382 645.263 9.03509C650.131 11.4236 653.961 14.7862 656.689 19.127C659.434 23.4001 660.781 28.3073 660.781 33.7803C660.781 41.4113 658.042 47.7538 652.55 52.6351C652.094 53.041 651.621 53.4314 651.131 53.8066C652.289 54.5949 653.376 55.4544 654.393 56.386C660.432 61.9217 663.441 69.0488 663.441 77.6003C663.441 83.7378 661.901 89.2545 658.781 94.0854L658.776 94.0935L658.771 94.1015C655.658 98.8204 651.307 102.502 645.79 105.162L645.783 105.165L645.776 105.168C640.324 107.746 634.001 109 626.861 109H578.941Z" fill="white"></path>
<path fill-rule="evenodd" clip-rule="evenodd" d="M479.128 104.199C485.195 107.186 492.242 108.679 500.268 108.679C506.522 108.679 512.075 107.699 516.928 105.739C521.782 103.779 525.935 100.839 529.388 96.9194L515.668 83.3394C515.219 83.8504 514.758 84.3323 514.286 84.785C512.602 86.3999 510.777 87.6447 508.808 88.5195C506.382 89.5461 503.535 90.0594 500.268 90.0594C496.908 90.0594 494.108 89.4061 491.868 88.0995C489.864 86.9301 488.27 85.2748 487.088 83.1337C486.949 82.8823 486.816 82.6242 486.688 82.3595C486.52 81.9665 486.364 81.5599 486.221 81.1395L533.588 80.8194C534.055 78.7661 534.335 76.9928 534.428 75.4995C534.615 73.9128 534.708 72.4194 534.708 71.0195C534.708 64.2995 533.122 58.3261 529.948 53.0994C526.868 47.8728 522.575 43.8128 517.068 40.9194C511.562 37.9328 505.215 36.4395 498.028 36.4395C490.748 36.4395 484.215 38.0261 478.428 41.1994C472.642 44.2794 468.068 48.5261 464.708 53.9395C461.442 59.3528 459.808 65.5594 459.808 72.5594C459.808 79.6528 461.488 85.9528 464.848 91.4594C468.302 96.8728 473.062 101.119 479.128 104.199ZM518.01 39.1547C512.172 35.9917 505.493 34.4395 498.028 34.4395C490.453 34.4395 483.587 36.0924 477.479 39.4392C471.395 42.6796 466.559 47.1658 463.009 52.8847L463.002 52.8954L462.996 52.9061C459.521 58.664 457.808 65.2354 457.808 72.5594C457.808 79.9825 459.571 86.65 463.141 92.5012L463.151 92.5182L463.162 92.5351C466.819 98.268 471.857 102.751 478.223 105.983L478.234 105.988L478.245 105.994C484.633 109.139 491.992 110.679 500.268 110.679C506.729 110.679 512.544 109.667 517.677 107.594C522.819 105.518 527.23 102.396 530.889 98.2415L532.137 96.8255L518.092 82.9242L535.187 82.8087L535.539 81.2627C536.015 79.1669 536.316 77.3003 536.421 75.6791C536.611 74.0453 536.708 72.4913 536.708 71.0195C536.708 63.9753 535.042 57.6397 531.664 52.0722C528.393 46.5257 523.827 42.2139 518.01 39.1547ZM513.292 82.9566L489.42 83.1179C490.353 84.4983 491.506 85.5724 492.876 86.3719C494.733 87.4548 497.16 88.0594 500.268 88.0594C503.321 88.0594 505.887 87.5806 508.012 86.6847C509.892 85.8467 511.653 84.6145 513.292 82.9566ZM486.947 62.3139C488.034 60.1189 489.488 58.4007 491.308 57.1594C493.362 55.7594 495.788 55.0594 498.588 55.0594C501.295 55.0594 503.535 55.6661 505.308 56.8794C507.031 58.0583 508.314 59.81 509.156 62.1343C509.18 62.2022 509.204 62.2706 509.228 62.3394C509.451 62.8961 509.647 63.4927 509.817 64.129L486.144 64.3205C486.269 63.929 486.403 63.5486 486.548 63.1794C486.675 62.8831 486.808 62.5946 486.947 62.3139ZM489.23 62.2954L507.013 62.1516C506.304 60.5003 505.345 59.3275 504.179 58.5301C502.815 57.5971 500.997 57.0594 498.588 57.0594C496.138 57.0594 494.115 57.6664 492.435 58.8119C491.178 59.6687 490.105 60.8161 489.23 62.2954Z" fill="white"></path>
<path fill-rule="evenodd" clip-rule="evenodd" d="M402.058 109V62.5198H388.058V36.1198H402.058V35.3198C402.058 29.0469 403.432 23.3058 406.213 18.139C409.003 12.8612 413.044 8.67479 418.297 5.59998C423.613 2.39391 429.956 0.839844 437.238 0.839844C442.674 0.839844 447.563 1.7132 451.863 3.51197C456.187 5.28196 459.833 7.66654 462.756 10.6898L464.122 12.1036L444.28 31.9457L442.873 30.3369C442.497 29.9079 442.008 29.5938 441.332 29.4094L441.252 29.3876L441.174 29.3594C440.372 29.0678 439.531 28.9198 438.638 28.9198C436.929 28.9198 435.743 29.4233 434.872 30.2941C434.001 31.1648 433.498 32.3509 433.498 34.0598V36.1198H452.398V62.5198H433.498V109H402.058ZM431.498 60.5198H450.398V38.1198H431.498V34.0598C431.498 31.9132 432.151 30.1865 433.458 28.8798C434.765 27.5732 436.491 26.9198 438.638 26.9198C439.758 26.9198 440.831 27.1065 441.858 27.4798C442.656 27.6976 443.342 28.0565 443.915 28.5566C444.078 28.6995 444.233 28.8539 444.378 29.0198L461.317 12.0803C461.117 11.8729 460.913 11.6681 460.705 11.4669C460.434 11.2049 460.156 10.9482 459.873 10.6967C457.429 8.53239 454.504 6.75345 451.098 5.35985C447.085 3.67985 442.465 2.83984 437.238 2.83984C430.238 2.83984 424.265 4.33318 419.318 7.31985C414.371 10.2132 410.591 14.1332 407.978 19.0798C405.365 23.9332 404.058 29.3465 404.058 35.3198V38.1198H390.058V60.5198H404.058V107H431.498V60.5198Z" fill="white"></path>
<path fill-rule="evenodd" clip-rule="evenodd" d="M347.866 109V36.1201H379.306V109H347.866ZM352.067 29.01L352.044 28.9848C349.067 25.7953 347.586 21.8933 347.586 17.4001C347.586 12.9066 349.068 9.03699 352.067 5.93093L352.068 5.93008C355.164 2.72706 359.049 1.12012 363.586 1.12012C368.196 1.12012 372.097 2.71464 375.117 5.94347C378.108 9.04742 379.586 12.9126 379.586 17.4001C379.586 21.8933 378.105 25.7953 375.128 28.9848L375.116 28.9971L375.104 29.0093C372.078 32.1442 368.18 33.6801 363.586 33.6801C359.071 33.6801 355.193 32.1358 352.091 29.0343L352.067 29.01ZM373.666 7.32012C371.052 4.52012 367.692 3.12012 363.586 3.12012C359.572 3.12012 356.212 4.52012 353.506 7.32012C350.892 10.0268 349.586 13.3868 349.586 17.4001C349.586 21.4135 350.892 24.8201 353.506 27.6201C356.212 30.3268 359.572 31.6801 363.586 31.6801C367.692 31.6801 371.052 30.3268 373.666 27.6201C376.279 24.8201 377.586 21.4135 377.586 17.4001C377.586 13.3868 376.279 10.0268 373.666 7.32012ZM349.866 107H377.306V38.1201H349.866V107Z" fill="white"></path>
<path fill-rule="evenodd" clip-rule="evenodd" d="M265.969 107H335.409V83.2003H293.969V7.32031H265.969V107ZM295.969 81.2003V5.32031H263.969V109H337.409V81.2003H295.969Z" fill="white"></path>
<path fill-rule="evenodd" clip-rule="evenodd" d="M178.243 107H205.683V60.5198H220.383V38.1198H205.683V9.83984H178.243V38.1198H163.543V60.5198H178.243V107ZM176.243 62.5198V109H207.683V62.5198H222.383V36.1198H207.683V7.83984H176.243V36.1198H161.543V62.5198H176.243Z" fill="white"></path>
<path fill-rule="evenodd" clip-rule="evenodd" d="M100.997 104.199C107.064 107.186 114.111 108.679 122.137 108.679C128.391 108.679 133.944 107.699 138.797 105.739C143.651 103.779 147.804 100.839 151.257 96.9194L137.537 83.3394C137.088 83.8504 136.627 84.3323 136.155 84.7851C134.471 86.3999 132.645 87.6447 130.677 88.5195C128.251 89.5461 125.404 90.0594 122.137 90.0594C118.777 90.0594 115.977 89.4061 113.737 88.0995C111.733 86.9301 110.139 85.2748 108.957 83.1337C108.818 82.8823 108.685 82.6242 108.557 82.3595C108.389 81.9665 108.233 81.5599 108.09 81.1395L155.457 80.8194C155.924 78.7661 156.204 76.9928 156.297 75.4995C156.484 73.9128 156.577 72.4194 156.577 71.0195C156.577 64.2995 154.991 58.3261 151.817 53.0994C148.737 47.8728 144.444 43.8128 138.937 40.9194C133.431 37.9328 127.084 36.4395 119.897 36.4395C112.617 36.4395 106.084 38.0261 100.297 41.1994C94.5106 44.2794 89.9372 48.5261 86.5772 53.9395C83.3106 59.3528 81.6772 65.5594 81.6772 72.5594C81.6772 79.6528 83.3572 85.9528 86.7172 91.4594C90.1706 96.8728 94.9306 101.119 100.997 104.199ZM99.3465 39.4398C105.455 36.0927 112.321 34.4395 119.897 34.4395C127.362 34.4395 134.042 35.9918 139.879 39.1549C145.697 42.2143 150.263 46.5263 153.534 52.073C156.911 57.6403 158.577 63.9757 158.577 71.0195C158.577 72.4914 158.48 74.0454 158.29 75.6794C158.184 77.3006 157.884 79.167 157.408 81.2627L157.056 82.8087L139.961 82.9242L154.005 96.8255L152.758 98.2415C149.098 102.396 144.688 105.518 139.546 107.594C134.413 109.667 128.598 110.679 122.137 110.679C113.861 110.679 106.502 109.139 100.114 105.994L100.103 105.988L100.092 105.983C93.7261 102.751 88.6883 98.268 85.0311 92.5351L85.0204 92.5182L85.01 92.5012C81.4398 86.65 79.6772 79.9825 79.6772 72.5594C79.6772 65.2354 81.3903 58.664 84.8649 52.9061L84.8714 52.8954L84.878 52.8847C88.4274 47.1661 93.263 42.6801 99.3465 39.4398ZM135.161 82.9566L111.289 83.1179C112.222 84.4983 113.375 85.5724 114.745 86.3719C116.601 87.4548 119.029 88.0594 122.137 88.0594C125.191 88.0594 127.756 87.5805 129.882 86.6844C131.761 85.8464 133.522 84.6144 135.161 82.9566ZM108.816 62.3139C109.903 60.1189 111.357 58.4007 113.177 57.1594C115.231 55.7594 117.657 55.0594 120.457 55.0594C123.164 55.0594 125.404 55.6661 127.177 56.8794C128.9 58.0583 130.183 59.81 131.025 62.1343C131.049 62.2022 131.073 62.2706 131.097 62.3394C131.32 62.8961 131.516 63.4927 131.686 64.129L108.013 64.3205C108.137 63.929 108.272 63.5486 108.417 63.1794C108.544 62.8831 108.677 62.5946 108.816 62.3139ZM111.099 62.2954L128.882 62.1516C128.173 60.5003 127.213 59.3275 126.048 58.5301C124.684 57.5971 122.866 57.0594 120.457 57.0594C118.006 57.0594 115.984 57.6664 114.304 58.8119C113.047 59.6687 111.974 60.8161 111.099 62.2954Z" fill="white"></path>
<path fill-rule="evenodd" clip-rule="evenodd" d="M2.26001 107H71.7V83.2003H30.26V7.32031H2.26001V107ZM32.26 81.2003V5.32031H0.26001V109H73.7V81.2003H32.26Z" fill="white"></path>
</svg>