<svg width="20" height="20" viewBox="0 0 20 20" fill="none" xmlns="http://www.w3.org/2000/svg">
<path d="M16.9063 4.22652C16.5072 3.82731 16.0335 3.51062 15.512 3.29456C14.9905 3.07849 14.4316 2.96729 13.8672 2.96729C13.3027 2.96729 12.7438 3.07849 12.2224 3.29456C11.7009 3.51062 11.2272 3.82731 10.8281 4.22652L10 5.05465L9.17188 4.22652C8.36587 3.42051 7.27268 2.9677 6.13281 2.9677C4.99294 2.9677 3.89976 3.42051 3.09375 4.22652C2.28774 5.03253 1.83493 6.12572 1.83493 7.26559C1.83493 8.40546 2.28774 9.49864 3.09375 10.3046L3.92188 11.1328L10 17.2109L16.0781 11.1328L16.9063 10.3046C17.3055 9.90562 17.6222 9.43185 17.8382 8.9104C18.0543 8.38894 18.1655 7.83003 18.1655 7.26559C18.1655 6.70114 18.0543 6.14223 17.8382 5.62078C17.6222 5.09933 17.3055 4.62555 16.9063 4.22652Z" stroke="white" stroke-width="1.8" stroke-linecap="round" stroke-linejoin="round"></path>
</svg>